<!DOCTYPE svg PUBLIC "-//W3C//DTD SVG 1.1//EN" "http://www.w3.org/Graphics/SVG/1.1/DTD/svg11.dtd">
<!-- Uploaded to: SVG Repo, www.svgrepo.com, Transformed by: SVG Repo Mixer Tools -->
<svg fill="#555aec" height="800px" width="800px" version="1.1" id="Capa_1" xmlns="http://www.w3.org/2000/svg" xmlns:xlink="http://www.w3.org/1999/xlink" viewBox="0 0 297 297" xml:space="preserve" stroke="#555aec">
<g id="SVGRepo_bgCarrier" stroke-width="0"/>
<g id="SVGRepo_tracerCarrier" stroke-linecap="round" stroke-linejoin="round" stroke="#CCCCCC" stroke-width="3.564"> <g> <polygon points="33,66 0,66 66,148 0,231 33,231 99,148 "/> <polygon points="83,66 50,66 116,148 50,231 83,231 149,148 "/> <polygon points="133,66 100,66 166,148 100,231 133,231 199,148 "/> <polygon points="231,66 149,66 215,148 149,231 231,231 297,148 "/> </g> </g>
<g id="SVGRepo_iconCarrier"> <g> <polygon points="33,66 0,66 66,148 0,231 33,231 99,148 "/> <polygon points="83,66 50,66 116,148 50,231 83,231 149,148 "/> <polygon points="133,66 100,66 166,148 100,231 133,231 199,148 "/> <polygon points="231,66 149,66 215,148 149,231 231,231 297,148 "/> </g> </g>
</svg>